<svg width="600" height="340" viewBox="0 0 600 340" fill="none" xmlns="http://www.w3.org/2000/svg">
<path d="M0 225L105 0H304L315.139 2L326.01 5L346 13.5C346 13.5 357.781 20.2339 364 25C370.219 29.7661 378 37.5 378 37.5C378 37.5 394.854 57.5474 400.5 72.3564C406.146 87.1654 407 111.5 407 111.5C407 111.5 407.297 124.09 406 132C404.719 139.808 400.5 151.5 400.5 151.5C400.5 151.5 396.081 163.176 392 170C387.71 177.173 379 187 379 187C379 187 370.299 196.047 364 201C357.231 206.323 345.5 213 345.5 213C345.5 213 335.333 217.795 328.5 220C321.062 222.4 309 224.5 309 224.5L137 224.856V158H148.5V64.5L73.5 224.5L0 225Z" fill="#035FAE"/>
<path d="M218.5 157.5V66H294.714C294.714 66 300.133 66.9776 303.5 68C307.108 69.0957 312.5 71.5 312.5 71.5C312.5 71.5 317.55 74.6188 320.5 77C322.759 78.8231 326 82 326 82C326 82 329.724 86.3318 331.5 89.5C333.256 92.6313 335 98 335 98C335 98 336.623 103.419 337 107C337.347 110.301 337.5 116 337.5 116C337.5 116 337.503 120.719 337 124C336.439 127.662 334 133 334 133C334 133 331.472 138.547 329 141.5C326.239 144.797 320.5 148.5 320.5 148.5C320.5 148.5 311.083 153.718 304.5 155.5C297.673 157.348 286.5 157.5 286.5 157.5H218.5Z" fill="white"/>
<ellipse cx="291" cy="192" rx="17.5" ry="18" fill="white"/>
<ellipse cx="331" cy="180" rx="17.5" ry="18" fill="white"/>
<ellipse cx="361" cy="152" rx="17.5" ry="18" fill="white"/>
<ellipse cx="291" cy="32" rx="17.5" ry="18" fill="white"/>
<ellipse cx="371" cy="112" rx="17.5" ry="18" fill="white"/>
<ellipse cx="361" cy="72" rx="17.5" ry="18" fill="white"/>
<ellipse cx="331" cy="43" rx="17.5" ry="18" fill="white"/>
<path d="M552.5 224.5H413L412.5 0L543.5 0.5C543.5 0.5 551.832 0.806124 557 2C561.211 2.97281 567.5 5.5 567.5 5.5C567.5 5.5 574.281 7.89295 578 10.5C581.055 12.6414 585.5 17 585.5 17C585.5 17 590.072 22.4445 592.5 26.5C594.7 30.1742 597 36.5 597 36.5C597 36.5 598.109 42.5948 598.5 46.5C598.891 50.4052 599 56.5 599 56.5C599 56.5 598.643 65.2527 598 69.5C597.325 73.9572 595.5 78.5 595.5 78.5C595.5 78.5 592.343 84.7782 590 88C587.657 91.2218 584 95 584 95C584 95 580.487 99.0205 578 101C575.061 103.339 569.5 105.5 569.5 105.5C569.5 105.5 564.765 108.016 561.5 109C558.273 109.973 553 111 553 111C553 111 559.852 111.88 564 113.5C568.312 115.184 574.5 119 574.5 119C574.5 119 580.434 123.434 583.5 127C585.972 129.875 589 134 589 134C589 134 593.007 140.161 594.5 144C595.874 147.534 597 153.5 597 153.5L598.5 162.5V171.5C598.5 171.5 598.319 178.982 597.5 183C596.696 186.944 594.5 191.5 594.5 191.5C594.5 191.5 591.701 198.241 589 202C586.501 205.478 581.5 210 581.5 210C581.5 210 574.221 217.121 568.5 220C562.702 222.918 552.5 224.5 552.5 224.5Z" fill="#035FAE"/>
<path d="M479 89V45.5H526C526 45.5 531.182 46.3351 534 48C536.499 49.4765 539.5 53 539.5 53C539.5 53 542.805 56.9777 544 60C545.098 62.7778 545.5 67.5 545.5 67.5C545.5 67.5 545.098 72.2222 544 75C542.805 78.0223 539.5 82 539.5 82C539.5 82 536.499 85.5235 534 87C531.182 88.6649 526 89.5 526 89.5L479 89Z" fill="white"/>
<path d="M479.5 177.5V134H526.5C526.5 134 531.682 134.835 534.5 136.5C536.999 137.976 540 141.5 540 141.5C540 141.5 543.305 145.478 544.5 148.5C545.598 151.278 546 156 546 156C546 156 545.598 160.722 544.5 163.5C543.305 166.522 540 170.5 540 170.5C540 170.5 536.999 174.024 534.5 175.5C531.682 177.165 526.5 178 526.5 178L479.5 177.5Z" fill="white"/>
<path d="M7.988 249.768H89.3V271.368H77.012V260.52H19.604V271.368H7.988V249.768ZM62.324 282.888L74.804 285.672C71.476 294.504 66.932 301.832 61.172 307.656C55.412 313.48 48.5 318.088 40.436 321.48C32.436 324.936 23.348 327.624 13.172 329.544C12.852 328.584 12.276 327.432 11.444 326.088C10.612 324.744 9.748 323.4 8.852 322.056C7.956 320.776 7.156 319.72 6.452 318.888C16.244 317.544 24.884 315.496 32.372 312.744C39.924 309.928 46.196 306.12 51.188 301.32C56.244 296.456 59.956 290.312 62.324 282.888ZM6.164 276.744H91.124V287.592H6.164V276.744ZM37.94 241.896L49.94 239.112C51.092 241.096 52.244 243.336 53.396 245.832C54.612 248.264 55.54 250.312 56.18 251.976L43.508 255.24C42.996 253.512 42.196 251.4 41.108 248.904C40.02 246.344 38.964 244.008 37.94 241.896ZM16.916 300.84L25.268 292.68C30.58 294.344 36.244 296.264 42.26 298.44C48.276 300.616 54.292 302.952 60.308 305.448C66.324 307.88 71.956 310.344 77.204 312.84C82.452 315.336 86.932 317.736 90.644 320.04L81.332 329.832C77.876 327.528 73.62 325.064 68.564 322.44C63.572 319.88 58.132 317.288 52.244 314.664C46.356 311.976 40.372 309.48 34.292 307.176C28.212 304.808 22.42 302.696 16.916 300.84ZM17.108 300.744C19.028 298.248 20.98 295.496 22.964 292.488C25.012 289.416 26.996 286.184 28.916 282.792C30.9 279.4 32.724 275.976 34.388 272.52C36.116 269.064 37.588 265.736 38.804 262.536L51.668 265.128C50.388 268.392 48.884 271.72 47.156 275.112C45.492 278.44 43.732 281.736 41.876 285C40.084 288.2 38.26 291.24 36.404 294.12C34.612 296.936 32.916 299.464 31.316 301.704L17.108 300.744ZM131.54 246.312H192.02V255.336H131.54V246.312ZM130.292 290.28H192.404V299.4H130.292V290.28ZM154.004 301.128L162.548 298.248C163.572 299.976 164.692 301.928 165.908 304.104C167.124 306.216 168.052 308.04 168.692 309.576L159.86 312.84C159.22 311.304 158.324 309.416 157.172 307.176C156.084 304.936 155.028 302.92 154.004 301.128ZM143.54 305.352H153.524V317.064C153.524 318.216 153.748 318.952 154.196 319.272C154.644 319.592 155.636 319.752 157.172 319.752C157.556 319.752 158.164 319.752 158.996 319.752C159.828 319.752 160.724 319.752 161.684 319.752C162.708 319.752 163.668 319.752 164.564 319.752C165.46 319.752 166.132 319.752 166.58 319.752C167.54 319.752 168.244 319.592 168.692 319.272C169.14 318.888 169.46 318.12 169.652 316.968C169.844 315.752 170.004 313.992 170.132 311.688C171.156 312.392 172.532 313.064 174.26 313.704C176.052 314.344 177.62 314.792 178.964 315.048C178.644 318.632 178.068 321.352 177.236 323.208C176.404 325.128 175.22 326.472 173.684 327.24C172.212 328.008 170.228 328.392 167.732 328.392C167.22 328.392 166.42 328.392 165.332 328.392C164.244 328.392 163.06 328.392 161.78 328.392C160.5 328.392 159.316 328.392 158.228 328.392C157.14 328.392 156.34 328.392 155.828 328.392C152.5 328.392 149.94 328.04 148.148 327.336C146.42 326.632 145.204 325.448 144.5 323.784C143.86 322.184 143.54 319.976 143.54 317.16V305.352ZM133.364 303.24L142.1 306.504C141.204 309.768 140.116 313.192 138.836 316.776C137.62 320.36 136.116 323.496 134.324 326.184L125.78 321.096C126.868 319.56 127.892 317.8 128.852 315.816C129.812 313.832 130.676 311.752 131.444 309.576C132.212 307.336 132.852 305.224 133.364 303.24ZM174.644 306.408L182.996 302.664C184.468 304.52 185.876 306.536 187.22 308.712C188.628 310.888 189.876 313.032 190.964 315.144C192.052 317.256 192.852 319.208 193.364 321L184.34 325.032C183.892 323.304 183.156 321.384 182.132 319.272C181.172 317.096 180.02 314.888 178.676 312.648C177.396 310.344 176.052 308.264 174.644 306.408ZM172.82 268.392V277.704H179.732V268.392H172.82ZM158.324 268.392V277.704H165.044V268.392H158.324ZM143.924 268.392V277.704H150.452V268.392H143.924ZM134.996 260.232H189.14V285.864H134.996V260.232ZM156.212 239.112L168.308 239.496C167.988 242.376 167.604 245.256 167.156 248.136C166.772 251.016 166.388 253.768 166.004 256.392C165.62 258.952 165.204 261.192 164.756 263.112L154.004 262.44C154.388 260.328 154.74 257.928 155.06 255.24C155.38 252.488 155.636 249.704 155.828 246.888C156.02 244.072 156.148 241.48 156.212 239.112ZM122.132 260.616L132.404 264.264C130.356 268.552 127.956 272.936 125.204 277.416C122.452 281.896 119.54 286.152 116.468 290.184C113.46 294.216 110.452 297.768 107.444 300.84C107.06 300.008 106.484 298.92 105.716 297.576C104.948 296.168 104.148 294.76 103.316 293.352C102.548 291.944 101.812 290.792 101.108 289.896C103.732 287.528 106.324 284.744 108.884 281.544C111.444 278.344 113.876 274.952 116.18 271.368C118.484 267.784 120.468 264.2 122.132 260.616ZM120.596 239.4L130.868 243.72C128.756 246.728 126.356 249.864 123.668 253.128C121.044 256.392 118.292 259.528 115.412 262.536C112.596 265.544 109.844 268.232 107.156 270.6C106.772 269.768 106.26 268.776 105.62 267.624C105.044 266.408 104.404 265.224 103.7 264.072C103.06 262.856 102.452 261.864 101.876 261.096C104.052 259.24 106.324 257.064 108.692 254.568C111.124 252.008 113.364 249.416 115.412 246.792C117.524 244.104 119.252 241.64 120.596 239.4ZM114.452 281.352L119.828 275.976L125.108 277.704V329.64H114.452V281.352ZM213.812 239.88H223.988V329.256H213.812V239.88ZM201.62 271.464H233.204V282.216H201.62V271.464ZM213.716 277.128L220.148 280.296C219.38 283.496 218.452 286.888 217.364 290.472C216.34 293.992 215.188 297.512 213.908 301.032C212.628 304.552 211.252 307.88 209.78 311.016C208.372 314.152 206.9 316.872 205.364 319.176C204.98 317.96 204.468 316.648 203.828 315.24C203.252 313.768 202.612 312.328 201.908 310.92C201.268 309.448 200.628 308.2 199.988 307.176C201.908 304.808 203.732 301.896 205.46 298.44C207.252 294.92 208.852 291.304 210.26 287.592C211.732 283.816 212.884 280.328 213.716 277.128ZM224.276 282.984C224.852 283.624 225.716 284.712 226.868 286.248C228.084 287.784 229.364 289.48 230.708 291.336C232.116 293.128 233.396 294.824 234.548 296.424C235.7 297.96 236.5 299.08 236.948 299.784L229.652 308.616C229.076 307.208 228.34 305.576 227.444 303.72C226.612 301.8 225.652 299.816 224.564 297.768C223.54 295.72 222.516 293.8 221.492 292.008C220.468 290.152 219.604 288.584 218.9 287.304L224.276 282.984ZM201.524 247.272L209.012 245.448C209.844 247.688 210.58 250.152 211.22 252.84C211.924 255.464 212.5 258.024 212.948 260.52C213.396 262.952 213.684 265.16 213.812 267.144L205.844 269.16C205.78 267.176 205.524 264.936 205.076 262.44C204.692 259.944 204.18 257.352 203.54 254.664C202.964 251.976 202.292 249.512 201.524 247.272ZM228.116 244.872L237.236 246.792C236.468 249.288 235.668 251.912 234.836 254.664C234.004 257.352 233.172 259.944 232.34 262.44C231.572 264.872 230.804 267.048 230.036 268.968L223.22 266.952C223.86 264.968 224.5 262.696 225.14 260.136C225.78 257.576 226.356 254.952 226.868 252.264C227.444 249.576 227.86 247.112 228.116 244.872ZM238.388 246.504H288.5V254.664H238.388V246.504ZM240.788 258.504H286.388V266.184H240.788V258.504ZM235.7 270.408H290.996V278.664H235.7V270.408ZM257.108 239.592H267.956V275.016H257.108V239.592ZM240.788 282.6H277.268V290.76H251.444V329.64H240.788V282.6ZM274.58 282.6H285.428V319.272C285.428 321.64 285.14 323.496 284.564 324.84C283.988 326.184 282.868 327.24 281.204 328.008C279.54 328.712 277.556 329.16 275.252 329.352C272.948 329.544 270.26 329.608 267.188 329.544C266.996 328.136 266.612 326.568 266.036 324.84C265.46 323.176 264.852 321.704 264.212 320.424C266.004 320.488 267.764 320.552 269.492 320.616C271.22 320.616 272.404 320.584 273.044 320.52C273.684 320.52 274.1 320.424 274.292 320.232C274.484 319.976 274.58 319.592 274.58 319.08V282.6ZM246.74 295.368H278.324V302.952H246.74V295.368ZM246.74 307.56H278.324V315.048H246.74V307.56ZM306.74 249.384H383.828V261.48H306.74V249.384ZM301.46 311.304H389.204V322.92H301.46V311.304ZM338.228 256.008H351.38V316.008H338.228V256.008ZM439.508 260.424H486.452V328.968H475.7V270.696H449.78V329.64H439.508V260.424ZM444.212 286.344H477.524V296.52H444.212V286.344ZM444.212 313.704H477.524V323.976H444.212V313.704ZM457.076 239.496H468.5V264.936H468.02V319.848H457.556V264.936H457.076V239.496ZM400.052 249.48H436.148V260.136H400.052V249.48ZM418.484 265.608H428.564V329.16H418.484V265.608ZM398.804 303.24C402.004 302.792 405.652 302.312 409.748 301.8C413.844 301.224 418.164 300.616 422.708 299.976C427.252 299.272 431.828 298.568 436.436 297.864L436.916 307.752C430.708 308.904 424.436 310.056 418.1 311.208C411.828 312.36 406.164 313.384 401.108 314.28L398.804 303.24ZM403.124 291.24C402.932 290.536 402.644 289.608 402.26 288.456C401.876 287.24 401.46 285.992 401.012 284.712C400.564 283.432 400.116 282.344 399.668 281.448C400.692 281.192 401.588 280.424 402.356 279.144C403.124 277.8 403.892 276.04 404.66 273.864C405.044 272.84 405.62 271.176 406.388 268.872C407.156 266.504 407.956 263.72 408.788 260.52C409.62 257.32 410.42 253.896 411.188 250.248C412.02 246.6 412.66 242.984 413.108 239.4L424.148 241.416C423.188 246.6 421.94 251.848 420.404 257.16C418.932 262.472 417.3 267.528 415.508 272.328C413.716 277.128 411.924 281.448 410.132 285.288V285.48C410.132 285.48 409.78 285.704 409.076 286.152C408.372 286.536 407.54 287.048 406.58 287.688C405.684 288.264 404.884 288.872 404.18 289.512C403.476 290.152 403.124 290.728 403.124 291.24ZM403.124 291.24V282.024L408.116 279.432H436.244V289.8H410.612C409.076 289.8 407.54 289.928 406.004 290.184C404.532 290.44 403.572 290.792 403.124 291.24ZM537.524 261.768H549.236V316.296C549.236 319.176 548.852 321.416 548.084 323.016C547.38 324.68 546.036 325.96 544.052 326.856C542.068 327.752 539.668 328.296 536.852 328.488C534.036 328.744 530.676 328.872 526.772 328.872C526.452 327.272 525.908 325.416 525.14 323.304C524.372 321.192 523.572 319.4 522.74 317.928C525.364 317.992 527.892 318.056 530.324 318.12C532.756 318.12 534.388 318.12 535.22 318.12C536.116 318.056 536.724 317.896 537.044 317.64C537.364 317.384 537.524 316.904 537.524 316.2V261.768ZM513.236 241.896H564.404V252.36H513.236V241.896ZM560.66 241.896H563.636L566.132 241.32L574.004 247.08C571.444 249.832 568.564 252.552 565.364 255.24C562.164 257.928 558.74 260.456 555.092 262.824C551.444 265.192 547.732 267.24 543.956 268.968C543.252 267.944 542.228 266.696 540.884 265.224C539.54 263.752 538.42 262.6 537.524 261.768C540.532 260.296 543.54 258.568 546.548 256.584C549.556 254.536 552.308 252.424 554.804 250.248C557.364 248.072 559.316 246.056 560.66 244.2V241.896ZM528.116 268.872H557.876V278.568H528.116V268.872ZM500.276 262.536H519.476V272.904H500.276V262.536ZM526.196 283.656H559.604V293.352H526.196V283.656ZM521.876 299.016H564.02V308.712H521.876V299.016ZM578.42 261.864L587.54 269.064C585.812 271.176 583.956 273.384 581.972 275.688C580.052 277.928 578.1 280.104 576.116 282.216C574.196 284.264 572.404 286.088 570.74 287.688L563.444 281.448C565.108 279.784 566.836 277.832 568.628 275.592C570.484 273.352 572.276 271.048 574.004 268.68C575.796 266.248 577.268 263.976 578.42 261.864ZM568.148 260.136C569.108 267.048 570.42 273.736 572.084 280.2C573.812 286.6 576.02 292.392 578.708 297.576C581.46 302.76 584.788 306.984 588.692 310.248C587.86 310.888 586.9 311.784 585.812 312.936C584.788 314.024 583.796 315.176 582.836 316.392C581.94 317.544 581.172 318.632 580.532 319.656C576.18 315.624 572.564 310.664 569.684 304.776C566.868 298.888 564.532 292.296 562.676 285C560.884 277.704 559.412 269.96 558.26 261.768L568.148 260.136ZM516.404 262.536H518.516L520.532 262.152L527.636 264.648C526.548 273.032 524.948 280.84 522.836 288.072C520.724 295.304 518.196 301.736 515.252 307.368C512.308 312.936 509.012 317.512 505.364 321.096C504.788 320.2 503.988 319.208 502.964 318.12C501.94 316.968 500.884 315.88 499.796 314.856C498.772 313.768 497.812 312.936 496.916 312.36C500.308 309.224 503.284 305.256 505.844 300.456C508.468 295.592 510.676 290.152 512.468 284.136C514.26 278.12 515.572 271.72 516.404 264.936V262.536Z" fill="#035FAE"/>
</svg>
