<svg width="599" height="324" viewBox="0 0 599 324" fill="none" xmlns="http://www.w3.org/2000/svg">
<path d="M0 225L105 0H304L315.139 2L326.01 5L346 13.5C346 13.5 357.781 20.2339 364 25C370.219 29.7661 378 37.5 378 37.5C378 37.5 394.854 57.5474 400.5 72.3564C406.146 87.1654 407 111.5 407 111.5C407 111.5 407.297 124.09 406 132C404.719 139.808 400.5 151.5 400.5 151.5C400.5 151.5 396.081 163.176 392 170C387.71 177.173 379 187 379 187C379 187 370.299 196.047 364 201C357.231 206.323 345.5 213 345.5 213C345.5 213 335.333 217.795 328.5 220C321.062 222.4 309 224.5 309 224.5L137 224.856V158H148.5V64.5L73.5 224.5L0 225Z" fill="#035FAE"/>
<path d="M218.5 157.5V66H294.714C294.714 66 300.133 66.9776 303.5 68C307.108 69.0957 312.5 71.5 312.5 71.5C312.5 71.5 317.55 74.6188 320.5 77C322.759 78.8231 326 82 326 82C326 82 329.724 86.3318 331.5 89.5C333.256 92.6313 335 98 335 98C335 98 336.623 103.419 337 107C337.347 110.301 337.5 116 337.5 116C337.5 116 337.503 120.719 337 124C336.439 127.662 334 133 334 133C334 133 331.472 138.547 329 141.5C326.239 144.797 320.5 148.5 320.5 148.5C320.5 148.5 311.083 153.718 304.5 155.5C297.673 157.348 286.5 157.5 286.5 157.5H218.5Z" fill="white"/>
<ellipse cx="291" cy="192" rx="17.5" ry="18" fill="white"/>
<ellipse cx="331" cy="180" rx="17.5" ry="18" fill="white"/>
<ellipse cx="361" cy="152" rx="17.5" ry="18" fill="white"/>
<ellipse cx="291" cy="32" rx="17.5" ry="18" fill="white"/>
<ellipse cx="371" cy="112" rx="17.5" ry="18" fill="white"/>
<ellipse cx="361" cy="72" rx="17.5" ry="18" fill="white"/>
<ellipse cx="331" cy="43" rx="17.5" ry="18" fill="white"/>
<path d="M552.5 224.5H413L412.5 0L543.5 0.5C543.5 0.5 551.832 0.806124 557 2C561.211 2.97281 567.5 5.5 567.5 5.5C567.5 5.5 574.281 7.89295 578 10.5C581.055 12.6414 585.5 17 585.5 17C585.5 17 590.072 22.4445 592.5 26.5C594.7 30.1742 597 36.5 597 36.5C597 36.5 598.109 42.5948 598.5 46.5C598.891 50.4052 599 56.5 599 56.5C599 56.5 598.643 65.2527 598 69.5C597.325 73.9572 595.5 78.5 595.5 78.5C595.5 78.5 592.343 84.7782 590 88C587.657 91.2218 584 95 584 95C584 95 580.487 99.0205 578 101C575.061 103.339 569.5 105.5 569.5 105.5C569.5 105.5 564.765 108.016 561.5 109C558.273 109.973 553 111 553 111C553 111 559.852 111.88 564 113.5C568.312 115.184 574.5 119 574.5 119C574.5 119 580.434 123.434 583.5 127C585.972 129.875 589 134 589 134C589 134 593.007 140.161 594.5 144C595.874 147.534 597 153.5 597 153.5L598.5 162.5V171.5C598.5 171.5 598.319 178.982 597.5 183C596.696 186.944 594.5 191.5 594.5 191.5C594.5 191.5 591.701 198.241 589 202C586.501 205.478 581.5 210 581.5 210C581.5 210 574.221 217.121 568.5 220C562.702 222.918 552.5 224.5 552.5 224.5Z" fill="#035FAE"/>
<path d="M479 89V45.5H526C526 45.5 531.182 46.3351 534 48C536.499 49.4765 539.5 53 539.5 53C539.5 53 542.805 56.9777 544 60C545.098 62.7778 545.5 67.5 545.5 67.5C545.5 67.5 545.098 72.2222 544 75C542.805 78.0223 539.5 82 539.5 82C539.5 82 536.499 85.5235 534 87C531.182 88.6649 526 89.5 526 89.5L479 89Z" fill="white"/>
<path d="M479.5 177.5V134H526.5C526.5 134 531.682 134.835 534.5 136.5C536.999 137.976 540 141.5 540 141.5C540 141.5 543.305 145.478 544.5 148.5C545.598 151.278 546 156 546 156C546 156 545.598 160.722 544.5 163.5C543.305 166.522 540 170.5 540 170.5C540 170.5 536.999 174.024 534.5 175.5C531.682 177.165 526.5 178 526.5 178L479.5 177.5Z" fill="white"/>
<path d="M11.696 306L29.708 249.684H43.008L61.02 306H49.164L41.184 276.664C40.3227 273.725 39.4867 270.685 38.676 267.544C37.916 264.352 37.1053 261.261 36.244 258.272H35.94C35.2307 261.312 34.4453 264.403 33.584 267.544C32.7733 270.685 31.9627 273.725 31.152 276.664L23.096 306H11.696ZM22.868 291.56V282.82H49.62V291.56H22.868ZM69.8835 306V249.684H81.3595L97.6995 279.704L103.399 291.864H103.779C103.475 288.925 103.146 285.708 102.792 282.212C102.437 278.716 102.26 275.372 102.26 272.18V249.684H112.899V306H101.424L85.2355 275.904L79.5355 263.82H79.1555C79.4088 266.86 79.7128 270.077 80.0675 273.472C80.4222 276.867 80.5995 280.185 80.5995 283.428V306H69.8835ZM129.089 306V249.684H144.517C150.293 249.684 155.233 250.697 159.337 252.724C163.492 254.751 166.684 257.816 168.913 261.92C171.193 266.024 172.333 271.243 172.333 277.576C172.333 283.909 171.219 289.179 168.989 293.384C166.76 297.589 163.619 300.756 159.565 302.884C155.512 304.961 150.699 306 145.125 306H129.089ZM140.337 296.88H143.757C147.304 296.88 150.344 296.247 152.877 294.98C155.461 293.663 157.437 291.585 158.805 288.748C160.173 285.86 160.857 282.136 160.857 277.576C160.857 273.016 160.173 269.368 158.805 266.632C157.437 263.845 155.461 261.844 152.877 260.628C150.344 259.361 147.304 258.728 143.757 258.728H140.337V296.88ZM185.623 306V249.684H220.127V259.108H196.871V272.104H216.555V281.528H196.871V296.576H220.963V306H185.623ZM254.16 306V249.684H272.78C276.63 249.684 280.076 250.115 283.116 250.976C286.206 251.837 288.638 253.281 290.412 255.308C292.236 257.335 293.148 260.096 293.148 263.592C293.148 265.315 292.818 267.012 292.16 268.684C291.552 270.305 290.69 271.749 289.576 273.016C288.461 274.283 287.093 275.22 285.472 275.828V276.132C288.512 276.841 291.02 278.311 292.996 280.54C294.972 282.719 295.96 285.683 295.96 289.432C295.96 293.181 294.997 296.297 293.072 298.78C291.197 301.212 288.613 303.036 285.32 304.252C282.077 305.417 278.378 306 274.224 306H254.16ZM265.408 272.636H272.02C275.566 272.636 278.15 271.977 279.772 270.66C281.393 269.292 282.204 267.493 282.204 265.264C282.204 262.781 281.368 261.008 279.696 259.944C278.024 258.88 275.49 258.348 272.096 258.348H265.408V272.636ZM265.408 297.336H273.236C277.086 297.336 280 296.652 281.976 295.284C284.002 293.865 285.016 291.687 285.016 288.748C285.016 286.012 284.002 284.036 281.976 282.82C280 281.553 277.086 280.92 273.236 280.92H265.408V297.336ZM308.17 306V249.684H342.674V259.108H319.418V272.104H339.102V281.528H319.418V296.576H343.51V306H308.17ZM349.988 306L368 249.684H381.3L399.312 306H387.456L379.476 276.664C378.615 273.725 377.779 270.685 376.968 267.544C376.208 264.352 375.397 261.261 374.536 258.272H374.232C373.523 261.312 372.737 264.403 371.876 267.544C371.065 270.685 370.255 273.725 369.444 276.664L361.388 306H349.988ZM361.16 291.56V282.82H387.912V291.56H361.16ZM408.176 306V249.684H427.708C431.71 249.684 435.308 250.216 438.5 251.28C441.692 252.293 444.225 254.067 446.1 256.6C447.974 259.083 448.912 262.477 448.912 266.784C448.912 270.939 447.974 274.359 446.1 277.044C444.225 279.679 441.692 281.629 438.5 282.896C435.308 284.112 431.71 284.72 427.708 284.72H419.424V306H408.176ZM419.424 275.828H426.72C430.368 275.828 433.129 275.068 435.004 273.548C436.929 272.028 437.892 269.773 437.892 266.784C437.892 263.744 436.929 261.641 435.004 260.476C433.129 259.26 430.368 258.652 426.72 258.652H419.424V275.828ZM438.728 306L425.656 281.832L433.56 274.84L451.344 306H438.728ZM462.26 306V249.684H473.508V306H462.26ZM489.626 306V249.684H501.102L517.442 279.704L523.142 291.864H523.522C523.218 288.925 522.889 285.708 522.534 282.212C522.179 278.716 522.002 275.372 522.002 272.18V249.684H532.642V306H521.166L504.978 275.904L499.278 263.82H498.898C499.151 266.86 499.455 270.077 499.81 273.472C500.165 276.867 500.342 280.185 500.342 283.428V306H489.626ZM573 307.064C567.933 307.064 563.348 305.949 559.244 303.72C555.191 301.491 551.973 298.223 549.592 293.916C547.211 289.609 546.02 284.34 546.02 278.108C546.02 273.447 546.704 269.317 548.072 265.72C549.491 262.072 551.441 258.981 553.924 256.448C556.407 253.915 559.269 251.989 562.512 250.672C565.755 249.355 569.251 248.696 573 248.696C577.053 248.696 580.499 249.456 583.336 250.976C586.224 252.445 588.58 254.092 590.404 255.916L584.4 263.06C582.981 261.743 581.411 260.628 579.688 259.716C578.016 258.804 575.913 258.348 573.38 258.348C570.239 258.348 567.477 259.133 565.096 260.704C562.715 262.224 560.865 264.428 559.548 267.316C558.231 270.204 557.572 273.675 557.572 277.728C557.572 281.832 558.18 285.353 559.396 288.292C560.663 291.18 562.537 293.409 565.02 294.98C567.503 296.551 570.568 297.336 574.216 297.336C575.584 297.336 576.901 297.159 578.168 296.804C579.435 296.399 580.448 295.867 581.208 295.208V284.112H571.252V274.916H591.316V300.3C589.391 302.175 586.832 303.771 583.64 305.088C580.448 306.405 576.901 307.064 573 307.064Z" fill="#035FAE"/>
</svg>
