<svg width="357" height="362" viewBox="0 0 357 362" fill="none" xmlns="http://www.w3.org/2000/svg">
<path d="M19 285.15L75.1606 77H181.598L187.556 78.8502L193.371 81.6256L204.063 89.489C204.063 89.489 210.364 95.7186 213.69 100.128C217.017 104.537 221.178 111.692 221.178 111.692C221.178 111.692 230.193 130.238 233.213 143.938C236.233 157.638 236.689 180.15 236.689 180.15C236.689 180.15 236.848 191.798 236.154 199.115C235.469 206.338 233.213 217.155 233.213 217.155C233.213 217.155 230.849 227.956 228.666 234.269C226.372 240.905 221.713 249.996 221.713 249.996C221.713 249.996 217.059 258.366 213.69 262.948C210.069 267.872 203.795 274.049 203.795 274.049C203.795 274.049 198.357 278.485 194.702 280.525C190.724 282.745 184.273 284.688 184.273 284.688L92.2762 285.017V223.168H98.4271V136.67L58.3124 284.688L19 285.15Z" fill="#035FAE"/>
<path d="M135.284 223.16V137.853H176.721C176.721 137.853 179.667 138.764 181.498 139.717C183.46 140.739 186.391 142.98 186.391 142.98C186.391 142.98 189.137 145.888 190.741 148.108C191.969 149.808 193.731 152.77 193.731 152.77C193.731 152.77 195.756 156.808 196.721 159.762C197.676 162.682 198.624 167.687 198.624 167.687C198.624 167.687 199.507 172.74 199.712 176.078C199.901 179.156 199.984 184.469 199.984 184.469C199.984 184.469 199.985 188.868 199.712 191.927C199.407 195.342 198.081 200.318 198.081 200.318C198.081 200.318 196.706 205.49 195.362 208.243C193.861 211.317 190.741 214.769 190.741 214.769C190.741 214.769 185.621 219.634 182.042 221.296C178.33 223.018 172.255 223.16 172.255 223.16H135.284Z" fill="white"/>
<ellipse cx="174.628" cy="254.724" rx="9.61749" ry="16.7771" fill="white"/>
<ellipse cx="196.049" cy="243.634" rx="9.18033" ry="16.4928" fill="white"/>
<ellipse cx="211.787" cy="217.757" rx="9.18033" ry="16.7771" fill="white"/>
<ellipse cx="174.628" cy="106.573" rx="9.61749" ry="16.4928" fill="white"/>
<ellipse cx="217.033" cy="180.506" rx="9.18033" ry="16.4928" fill="white"/>
<ellipse cx="211.787" cy="143.824" rx="9.18033" ry="16.7771" fill="white"/>
<ellipse cx="196.049" cy="116.526" rx="9.18033" ry="16.7771" fill="white"/>
<path d="M314.149 285.15H239.595L239.328 77L309.339 77.4636C309.339 77.4636 313.792 77.7474 316.554 78.8543C318.804 79.7563 322.165 82.0994 322.165 82.0994C322.165 82.0994 325.789 84.3181 327.777 86.7353C329.409 88.7208 331.785 92.7619 331.785 92.7619C331.785 92.7619 334.229 97.81 335.526 101.57C336.702 104.977 337.931 110.842 337.931 110.842C337.931 110.842 338.524 116.493 338.733 120.114C338.942 123.734 339 129.385 339 129.385C339 129.385 338.809 137.5 338.466 141.438C338.105 145.571 337.129 149.783 337.129 149.783C337.129 149.783 335.442 155.604 334.19 158.591C332.938 161.578 330.983 165.081 330.983 165.081C330.983 165.081 329.106 168.809 327.777 170.644C326.206 172.813 323.234 174.817 323.234 174.817C323.234 174.817 320.704 177.149 318.959 178.062C317.234 178.964 314.416 179.916 314.416 179.916C314.416 179.916 318.078 180.732 320.295 182.234C322.599 183.795 325.906 187.334 325.906 187.334C325.906 187.334 329.078 191.445 330.716 194.751C332.037 197.416 333.656 201.241 333.656 201.241C333.656 201.241 335.797 206.953 336.595 210.513C337.329 213.789 337.931 219.321 337.931 219.321L338.733 227.666V236.01C338.733 236.01 338.636 242.947 338.198 246.673C337.769 250.33 336.595 254.554 336.595 254.554C336.595 254.554 335.099 260.804 333.656 264.289C332.32 267.513 329.647 271.706 329.647 271.706C329.647 271.706 325.758 278.309 322.7 280.978C319.601 283.683 314.149 285.15 314.149 285.15Z" fill="#035FAE"/>
<path d="M275.175 160.123V118.516H300.51C300.51 118.516 303.304 119.315 304.823 120.907C306.17 122.32 307.787 125.69 307.787 125.69C307.787 125.69 309.569 129.494 310.213 132.385C310.805 135.042 311.022 139.559 311.022 139.559C311.022 139.559 310.805 144.075 310.213 146.732C309.569 149.623 307.787 153.428 307.787 153.428C307.787 153.428 306.17 156.798 304.823 158.21C303.304 159.802 300.51 160.601 300.51 160.601L275.175 160.123Z" fill="white"/>
<path d="M275.175 240.9V200.98H300.51C300.51 200.98 303.304 201.747 304.823 203.274C306.17 204.629 307.787 207.863 307.787 207.863C307.787 207.863 309.569 211.513 310.213 214.287C310.805 216.836 311.022 221.17 311.022 221.17C311.022 221.17 310.805 225.503 310.213 228.052C309.569 230.826 307.787 234.476 307.787 234.476C307.787 234.476 306.17 237.71 304.823 239.065C303.304 240.593 300.51 241.359 300.51 241.359L275.175 240.9Z" fill="white"/>
</svg>
